<svg width="661" height="588" viewBox="0 0 661 588" fill="none" xmlns="http://www.w3.org/2000/svg">
<path fill-rule="evenodd" clip-rule="evenodd" d="M108.434 244.846C156.262 287.026 214.915 314.031 284.393 325.86C311.511 330.477 334.75 347.903 346.823 372.675C380.73 442.246 420.366 493.926 465.729 527.714C519.689 567.905 584.779 588 661 588L661 0.000118822L5.14046e-05 6.10351e-05C14.7264 112.466 50.8712 194.081 108.434 244.846Z" fill="#FFB13D"/>
<path fill-rule="evenodd" clip-rule="evenodd" d="M301.842 137.328C334.355 158.156 375.732 173.935 425.973 184.665C451.088 190.029 472.469 206.394 484.219 229.246C505.286 270.22 530.395 300.655 559.546 320.553C596.918 346.061 630.736 358.538 661 357.982L661 1.05241L227 3.05176e-05C235.849 65.2577 260.797 111.034 301.842 137.328Z" fill="#FCA239"/>
</svg>
