<svg width="170" height="170" viewBox="0 0 170 170" fill="none" xmlns="http://www.w3.org/2000/svg">
<g filter="url(#filter0_d)">
<rect x="20" y="16" width="130" height="130" rx="10" fill="white"/>
</g>
<path opacity="0.3" d="M39 16H140C145.523 16 150 20.4772 150 26V127L39 16Z" fill="#FFBC3B"/>
<path fill-rule="evenodd" clip-rule="evenodd" d="M114.752 59.6413H54.9769L54.9769 101.584H114.752V59.6413ZM54.9769 54.7024C52.2282 54.7024 50 56.9136 50 59.6413V101.584C50 104.311 52.2282 106.523 54.9769 106.523H114.752C117.5 106.523 119.728 104.311 119.728 101.584V59.6413C119.728 56.9136 117.5 54.7024 114.752 54.7024H54.9769Z" fill="black"/>
<path fill-rule="evenodd" clip-rule="evenodd" d="M69.158 96.6557L68.3292 101.584H101.402L100.573 96.6557H69.158ZM67.0505 91.7168C65.8343 91.7168 64.7963 92.5892 64.596 93.7797L62.9364 103.647C62.6832 105.152 63.853 106.523 65.3909 106.523H104.34C105.878 106.523 107.048 105.152 106.794 103.647L105.135 93.7797C104.935 92.5892 103.897 91.7168 102.68 91.7168H67.0505Z" fill="black"/>
<path fill-rule="evenodd" clip-rule="evenodd" d="M69.9236 81.8431C72.6833 81.8431 74.9079 79.6283 74.9079 76.9115C74.9079 74.1948 72.6833 71.9799 69.9236 71.9799C67.1639 71.9799 64.9393 74.1948 64.9393 76.9115C64.9393 79.6283 67.1639 81.8431 69.9236 81.8431ZM69.9236 86.782C75.425 86.782 79.8848 82.3629 79.8848 76.9115C79.8848 71.4602 75.425 67.041 69.9236 67.041C64.4222 67.041 59.9624 71.4602 59.9624 76.9115C59.9624 82.3629 64.4222 86.782 69.9236 86.782Z" fill="black"/>
<path fill-rule="evenodd" clip-rule="evenodd" d="M99.8074 81.8431C102.567 81.8431 104.792 79.6283 104.792 76.9115C104.792 74.1948 102.567 71.9799 99.8074 71.9799C97.0477 71.9799 94.8231 74.1948 94.8231 76.9115C94.8231 79.6283 97.0477 81.8431 99.8074 81.8431ZM99.8074 86.782C105.309 86.782 109.769 82.3629 109.769 76.9115C109.769 71.4602 105.309 67.041 99.8074 67.041C94.306 67.041 89.8462 71.4602 89.8462 76.9115C89.8462 82.3629 94.306 86.782 99.8074 86.782Z" fill="black"/>
<path fill-rule="evenodd" clip-rule="evenodd" d="M99.822 71.9799H69.9088C67.1642 71.9799 64.9393 74.1879 64.9393 76.9115C64.9393 79.6352 67.1642 81.8431 69.9088 81.8431H99.822C102.567 81.8431 104.792 79.6352 104.792 76.9115C104.792 74.1879 102.567 71.9799 99.822 71.9799ZM69.9088 67.041C64.4156 67.041 59.9624 71.4602 59.9624 76.9115C59.9624 82.3629 64.4156 86.782 69.9088 86.782H99.822C105.315 86.782 109.768 82.3629 109.768 76.9115C109.768 71.4602 105.315 67.041 99.822 67.041H69.9088Z" fill="black"/>
<path d="M39.5689 114.477L35.7505 128.728L25.3184 118.295L39.5689 114.477Z" fill="#FFBC3B"/>
<path d="M144.944 26.9287L160.902 43.9037L138.222 49.2364L144.944 26.9287Z" fill="#FFD387"/>
<defs>
<filter id="filter0_d" x="0" y="0" width="170" height="170" filterUnits="userSpaceOnUse" color-interpolation-filters="sRGB">
<feFlood flood-opacity="0" result="BackgroundImageFix"/>
<feColorMatrix in="SourceAlpha" type="matrix" values="0 0 0 0 0 0 0 0 0 0 0 0 0 0 0 0 0 0 127 0"/>
<feOffset dy="4"/>
<feGaussianBlur stdDeviation="10"/>
<feColorMatrix type="matrix" values="0 0 0 0 0.983456 0 0 0 0 0.902264 0 0 0 0 0.745938 0 0 0 1 0"/>
<feBlend mode="normal" in2="BackgroundImageFix" result="effect1_dropShadow"/>
<feBlend mode="normal" in="SourceGraphic" in2="effect1_dropShadow" result="shape"/>
</filter>
</defs>
</svg>
