<svg width="170" height="170" viewBox="0 0 170 170" fill="none" xmlns="http://www.w3.org/2000/svg">
<g filter="url(#filter0_d)">
<rect x="20" y="16" width="130" height="130" rx="10" fill="white"/>
</g>
<path opacity="0.2" d="M20 46C75.2285 46 120 90.7715 120 146H30C24.4772 146 20 141.523 20 136V46Z" fill="#F45247"/>
<path fill-rule="evenodd" clip-rule="evenodd" d="M84.8088 57.4331C83.4344 57.4331 82.3203 56.319 82.3203 54.9447V47.4885C82.3203 46.1142 83.4344 45.0001 84.8088 45.0001C86.1831 45.0001 87.2972 46.1142 87.2972 47.4885V54.9447C87.2972 56.319 86.1831 57.4331 84.8088 57.4331Z" fill="black"/>
<path fill-rule="evenodd" clip-rule="evenodd" d="M69.4716 59.9913C68.1867 60.4788 66.7488 59.8328 66.2599 58.5483L63.6071 51.5775C63.1183 50.2931 63.7637 48.8566 65.0487 48.369C66.3336 47.8815 67.7716 48.5275 68.2604 49.812L70.9132 56.7828C71.402 58.0672 70.7566 59.5037 69.4716 59.9913Z" fill="black"/>
<path fill-rule="evenodd" clip-rule="evenodd" d="M55.5785 68.7946C54.4899 69.6334 52.9261 69.432 52.0857 68.3446L47.5218 62.4397C46.6813 61.3523 46.8825 59.7907 47.9711 58.9518C49.0597 58.113 50.6235 58.3144 51.464 59.4018L56.0279 65.3067C56.8683 66.3941 56.6672 67.9557 55.5785 68.7946Z" fill="black"/>
<path fill-rule="evenodd" clip-rule="evenodd" d="M100.142 59.9913C101.427 60.4788 102.865 59.8328 103.353 58.5483L106.006 51.5775C106.495 50.2931 105.85 48.8566 104.565 48.369C103.28 47.8815 101.842 48.5275 101.353 49.812L98.7001 56.7827C98.2113 58.0672 98.8567 59.5037 100.142 59.9913Z" fill="black"/>
<path fill-rule="evenodd" clip-rule="evenodd" d="M114.035 68.7946C115.123 69.6334 116.687 69.432 117.528 68.3446L122.092 62.4397C122.932 61.3523 122.731 59.7907 121.642 58.9518C120.554 58.113 118.99 58.3144 118.149 59.4018L113.585 65.3067C112.745 66.3941 112.946 67.9557 114.035 68.7946Z" fill="black"/>
<path fill-rule="evenodd" clip-rule="evenodd" d="M54.866 85.1865C54.8655 85.1867 54.8679 85.1782 54.8746 85.1602C54.8698 85.1772 54.8665 85.1862 54.866 85.1865ZM55.0552 84.7864C55.1003 84.704 55.1542 84.6101 55.2181 84.5043C55.5684 83.9243 56.1259 83.1417 56.8923 82.2147C58.4199 80.3669 60.6669 78.079 63.462 75.8546C69.0955 71.3713 76.6517 67.3819 84.8043 67.3819C92.9568 67.3819 100.513 71.3713 106.147 75.8546C108.942 78.079 111.189 80.3669 112.716 82.2147C113.483 83.1417 114.04 83.9243 114.39 84.5043C114.454 84.6101 114.508 84.704 114.553 84.7863C114.508 84.8686 114.454 84.9626 114.39 85.0684C114.04 85.6484 113.483 86.431 112.716 87.358C111.189 89.2058 108.942 91.4937 106.147 93.7181C100.513 98.2014 92.9568 102.191 84.8043 102.191C76.6517 102.191 69.0955 98.2014 63.462 93.7181C60.6669 91.4937 58.4199 89.2058 56.8923 87.358C56.1259 86.431 55.5684 85.6484 55.2181 85.0684C55.1542 84.9626 55.1003 84.8687 55.0552 84.7864ZM114.743 85.1865C114.742 85.1862 114.739 85.1772 114.734 85.1602C114.741 85.1782 114.743 85.1867 114.743 85.1865ZM114.734 84.4125C114.739 84.3955 114.742 84.3865 114.743 84.3862C114.743 84.386 114.741 84.3945 114.734 84.4125ZM54.8746 84.4125C54.8679 84.3945 54.8655 84.386 54.866 84.3862C54.8665 84.3865 54.8698 84.3955 54.8746 84.4125ZM60.3629 71.9603C66.4465 67.1188 75.0772 62.405 84.8043 62.405C94.5314 62.405 103.162 67.1188 109.246 71.9603C112.309 74.3982 114.803 76.9281 116.552 79.0434C117.424 80.0979 118.138 81.0831 118.651 81.931C118.905 82.3528 119.134 82.78 119.307 83.1924C119.454 83.5451 119.667 84.1282 119.667 84.7864C119.667 85.4445 119.454 86.0276 119.307 86.3803C119.134 86.7927 118.905 87.2199 118.651 87.6417C118.138 88.4896 117.424 89.4748 116.552 90.5292C114.803 92.6446 112.309 95.1745 109.246 97.6124C103.162 102.454 94.5314 107.168 84.8043 107.168C75.0772 107.168 66.4465 102.454 60.3629 97.6124C57.2995 95.1745 54.8054 92.6446 53.0566 90.5292C52.1848 89.4748 51.4702 88.4896 50.9581 87.6417C50.7033 87.2199 50.4746 86.7927 50.302 86.3803C50.1544 86.0276 49.9419 85.4445 49.9419 84.7864C49.9419 84.1282 50.1544 83.5451 50.302 83.1924C50.4746 82.78 50.7033 82.3528 50.9581 81.931C51.4702 81.0831 52.1848 80.0979 53.0566 79.0434C54.8054 76.9281 57.2995 74.3982 60.3629 71.9603Z" fill="black"/>
<path fill-rule="evenodd" clip-rule="evenodd" d="M84.8048 67.3824C77.9235 67.3824 72.3514 72.9515 72.3514 79.8136C72.3514 86.6757 77.9235 92.2448 84.8048 92.2448C91.6861 92.2448 97.2581 86.6757 97.2581 79.8136C97.2581 72.9515 91.6861 67.3824 84.8048 67.3824ZM67.3745 79.8136C67.3745 70.1959 75.1818 62.4055 84.8048 62.4055C94.4278 62.4055 102.235 70.1959 102.235 79.8136C102.235 89.4313 94.4278 97.2217 84.8048 97.2217C75.1818 97.2217 67.3745 89.4313 67.3745 79.8136Z" fill="black"/>
<path d="M90 80C90 82.7614 87.7614 85 85 85C82.2386 85 80 82.7614 80 80C80 77.2386 82.2386 75 85 75C87.7614 75 90 77.2386 90 80Z" fill="black"/>
<circle cx="26.5" cy="45.5" r="11.5" fill="#F45247"/>
<circle cx="132" cy="117" r="6" fill="#FF928B"/>
<defs>
<filter id="filter0_d" x="0" y="0" width="170" height="170" filterUnits="userSpaceOnUse" color-interpolation-filters="sRGB">
<feFlood flood-opacity="0" result="BackgroundImageFix"/>
<feColorMatrix in="SourceAlpha" type="matrix" values="0 0 0 0 0 0 0 0 0 0 0 0 0 0 0 0 0 0 127 0"/>
<feOffset dy="4"/>
<feGaussianBlur stdDeviation="10"/>
<feColorMatrix type="matrix" values="0 0 0 0 0.988235 0 0 0 0 0.796078 0 0 0 0 0.784314 0 0 0 1 0"/>
<feBlend mode="normal" in2="BackgroundImageFix" result="effect1_dropShadow"/>
<feBlend mode="normal" in="SourceGraphic" in2="effect1_dropShadow" result="shape"/>
</filter>
</defs>
</svg>
