<svg width="20" height="20" viewBox="0 0 20 20" fill="none" xmlns="http://www.w3.org/2000/svg">
<path d="M16.6804 6.14513C17.3204 6.14513 17.8335 6.67109 17.8335 7.31563V12.2245C17.8335 12.8742 17.3154 13.395 16.6804 13.395C16.0404 13.395 15.5273 12.8691 15.5273 12.2245V7.31563C15.5273 6.67109 16.0455 6.14513 16.6804 6.14513ZM7.36938 1.73643L6.56171 0.241075C6.52107 0.163729 6.54647 0.065758 6.62266 0.0193505C6.69886 -0.0219006 6.80045 0.0038815 6.84109 0.0863836L7.65384 1.5972C8.33959 1.28782 9.10662 1.1125 9.91937 1.1125C10.727 1.1125 11.4941 1.28266 12.1747 1.59205L12.9875 0.0863836C13.0281 0.00903789 13.1297 -0.0219006 13.2059 0.0193505C13.2821 0.0606016 13.3126 0.163729 13.272 0.241075L12.4643 1.73643C14.0491 2.5666 15.121 4.14446 15.121 5.95951H4.71779C4.71779 4.14446 5.78452 2.5666 7.36938 1.73643ZM12.2865 4.04649C12.5252 4.04649 12.7233 3.85054 12.7233 3.60304C12.7233 3.36069 12.5303 3.15959 12.2865 3.15959C12.0478 3.15959 11.8496 3.36069 11.8496 3.60304C11.8496 3.85054 12.0427 4.04649 12.2865 4.04649ZM7.54716 4.04649C7.78591 4.04649 7.98402 3.85054 7.98402 3.60304C7.98402 3.36069 7.79099 3.15959 7.54716 3.15959C7.30842 3.15959 7.11031 3.36069 7.11031 3.60304C7.11539 3.84539 7.30842 4.04649 7.54716 4.04649ZM15.0803 6.36686V13.9777C15.0803 14.6686 14.5317 15.2307 13.846 15.2307H13.0078V17.8295C13.0078 18.474 12.4897 19 11.8547 19C11.2147 19 10.7016 18.474 10.7016 17.8243V15.2255H9.14218V17.8243C9.14218 18.4689 8.62405 18.9948 7.98909 18.9948C7.34906 18.9948 6.83601 18.4689 6.83601 17.8243V15.2255H5.99279C5.31211 15.2255 4.75843 14.6686 4.75843 13.9725V6.3617L15.0803 6.36686ZM2.00016 7.31563C2.00016 6.66593 2.51829 6.14513 3.15325 6.14513C3.79329 6.14513 4.30633 6.67109 4.30633 7.31563V12.2245C4.30633 12.8742 3.78821 13.395 3.15325 13.395C2.51321 13.395 2.00016 12.8691 2.00016 12.2245V7.31563Z" fill="white"/>
</svg>
