<svg width="27" height="41" viewBox="0 0 27 41" fill="none" xmlns="http://www.w3.org/2000/svg">
<path d="M5.97682 38.6671C5.5185 39.6399 4.77491 40.1263 3.74604 40.1263C2.98841 40.1263 2.37576 39.9158 1.90809 39.4949C1.44978 39.074 1.22062 38.424 1.22062 37.5447V33.2796H2.329V37.4606C2.329 38.5923 2.85279 39.1582 3.90037 39.1582C4.50834 39.1582 4.99939 38.9244 5.37353 38.4567C5.75702 37.989 5.95811 37.3904 5.97682 36.6608V33.2796H7.0852V40H5.97682V38.6671ZM10.9918 34.5844C11.4314 33.6116 12.1844 33.1253 13.2507 33.1253C14.0457 33.1253 14.663 33.3871 15.1026 33.9109C15.5516 34.4347 15.7761 35.1503 15.7761 36.0575V40H14.6817V36.0575C14.6817 35.4122 14.5274 34.9258 14.2187 34.5984C13.9194 34.271 13.4892 34.1074 12.928 34.1074C12.3668 34.1074 11.9131 34.3365 11.567 34.7948C11.221 35.2532 11.0386 35.8892 11.0199 36.7029V40H9.9115V33.2936H10.8655L10.9918 34.5844ZM18.4494 33.2796H19.5577V40H18.4494V33.2796ZM18.9965 31.7082C18.7721 31.7082 18.5943 31.6474 18.4634 31.5258C18.3418 31.3949 18.281 31.2265 18.281 31.0207C18.281 30.8056 18.3418 30.6372 18.4634 30.5157C18.5943 30.3847 18.7721 30.3192 18.9965 30.3192C19.221 30.3192 19.3987 30.3847 19.5297 30.5157C19.67 30.6372 19.7401 30.8056 19.7401 31.0207C19.7401 31.2265 19.67 31.3949 19.5297 31.5258C19.3987 31.6474 19.221 31.7082 18.9965 31.7082ZM26.0793 39.8036C25.2749 40.1777 24.5407 40.2572 23.8766 40.0421C23.3996 39.8924 23.0628 39.5791 22.8664 39.1021C22.7635 38.8682 22.7121 38.5876 22.7121 38.2603V34.1354H21.6318V33.2936H22.7121V31.4276H23.8064V33.2936H25.911V34.1354H23.8064V38.2462C23.8064 38.929 24.1245 39.2704 24.7605 39.2704C25.1066 39.2704 25.4947 39.1863 25.925 39.0179L26.0793 39.8036Z" fill="white"/>
<path d="M22.1784 0.867769L19.6547 3.34711C21.1016 4.95868 21.8251 6.84711 21.8251 9.0124C21.8251 11.4008 20.9628 13.4421 19.2384 15.1364C17.5139 16.8223 15.4361 17.6653 13.005 17.6653C10.8095 17.6653 8.88734 16.9628 7.23857 15.5579L4.7402 18L3.85693 17.1322L6.36793 14.7025C4.92106 13.0661 4.19762 11.1694 4.19762 9.0124C4.19762 6.62397 5.05565 4.58678 6.77171 2.90083C8.49618 1.20661 10.5739 0.359504 13.005 0.359504C15.209 0.359504 17.1311 1.07025 18.7715 2.49174L21.3077 0L22.1784 0.867769ZM17.8882 3.34711C16.4918 2.16529 14.8641 1.57438 13.005 1.57438C10.9273 1.57438 9.1439 2.30578 7.65497 3.76859C6.17445 5.22314 5.43419 6.97107 5.43419 9.0124C5.43419 10.8388 6.03565 12.438 7.23857 13.8099L17.8882 3.34711ZM20.5759 9.0124C20.5759 7.18595 19.9744 5.58678 18.7715 4.21488L8.12184 14.6777C9.51824 15.8595 11.146 16.4504 13.005 16.4504C15.0828 16.4504 16.862 15.7231 18.3425 14.2686C19.8314 12.8058 20.5759 11.0537 20.5759 9.0124Z" fill="white"/>
</svg>
