<svg width="95" height="20" viewBox="0 0 95 20" fill="none" xmlns="http://www.w3.org/2000/svg">
<circle r="2.16667" transform="matrix(-1 0 0 1 17.5 2.72656)" fill="white" stroke="white" stroke-width="0.666667"/>
<path d="M38.084 16.4688L38.1621 16.7715L38.25 16.4688L42.7227 4.00781H44.041L38.748 18.2266H37.5957L32.3027 4.00781H33.6113L38.084 16.4688Z" fill="white"/>
<path d="M58.0742 14.2422H51.6191L50.1543 18.2266H48.8945L54.2754 4.00781H55.418L60.7988 18.2266H59.5488L58.0742 14.2422ZM51.9902 13.2168H57.6934L54.8418 5.47266L51.9902 13.2168Z" fill="white"/>
<path d="M75.9453 14.7305C75.9453 13.9427 75.6686 13.321 75.1152 12.8652C74.5618 12.403 73.5495 11.9668 72.0781 11.5566C70.6068 11.14 69.5326 10.6875 68.8555 10.1992C67.8919 9.50911 67.4102 8.60417 67.4102 7.48438C67.4102 6.39714 67.8561 5.51497 68.748 4.83789C69.6465 4.1543 70.7923 3.8125 72.1855 3.8125C73.1296 3.8125 73.9727 3.99479 74.7148 4.35938C75.4635 4.72396 76.043 5.23177 76.4531 5.88281C76.8633 6.53385 77.0684 7.25977 77.0684 8.06055H75.8574C75.8574 7.09049 75.5254 6.3125 74.8613 5.72656C74.1973 5.13411 73.3053 4.83789 72.1855 4.83789C71.0983 4.83789 70.2324 5.08203 69.5879 5.57031C68.9434 6.05208 68.6211 6.68359 68.6211 7.46484C68.6211 8.1875 68.9108 8.77669 69.4902 9.23242C70.0697 9.68815 70.9974 10.0918 72.2734 10.4434C73.5495 10.7884 74.5163 11.1497 75.1738 11.5273C75.8314 11.8984 76.3262 12.3444 76.6582 12.8652C76.9902 13.3861 77.1562 14.0013 77.1562 14.7109C77.1562 15.8307 76.707 16.7292 75.8086 17.4062C74.9167 18.0833 73.7383 18.4219 72.2734 18.4219C71.2708 18.4219 70.3496 18.2428 69.5098 17.8848C68.6764 17.5267 68.0417 17.0254 67.6055 16.3809C67.1758 15.7363 66.9609 14.9974 66.9609 14.1641H68.1621C68.1621 15.1667 68.5365 15.9577 69.2852 16.5371C70.0339 17.1165 71.0299 17.4062 72.2734 17.4062C73.3802 17.4062 74.2689 17.1621 74.9395 16.6738C75.61 16.1855 75.9453 15.5378 75.9453 14.7305Z" fill="white"/>
<path d="M94.4023 5.0332H89.5293V18.2266H88.3281V5.0332H83.4648V4.00781H94.4023V5.0332Z" fill="white"/>
<path fill-rule="evenodd" clip-rule="evenodd" d="M10 19C14.9706 19 19 14.9706 19 10C19 5.02944 14.9706 1 10 1C5.02944 1 1 5.02944 1 10C1 14.9706 5.02944 19 10 19ZM10 20C15.5228 20 20 15.5228 20 10C20 4.47715 15.5228 0 10 0C4.47715 0 0 4.47715 0 10C0 15.5228 4.47715 20 10 20Z" fill="white"/>
<path d="M13.3337 9.99984C13.3337 11.8408 11.8413 13.3332 10.0003 13.3332C8.15938 13.3332 6.66699 11.8408 6.66699 9.99984C6.66699 8.15889 8.15938 6.6665 10.0003 6.6665C11.8413 6.6665 13.3337 8.15889 13.3337 9.99984Z" fill="black"/>
<path fill-rule="evenodd" clip-rule="evenodd" d="M10.0003 12.3332C11.289 12.3332 12.3337 11.2885 12.3337 9.99984C12.3337 8.71117 11.289 7.6665 10.0003 7.6665C8.71166 7.6665 7.66699 8.71117 7.66699 9.99984C7.66699 11.2885 8.71166 12.3332 10.0003 12.3332ZM10.0003 13.3332C11.8413 13.3332 13.3337 11.8408 13.3337 9.99984C13.3337 8.15889 11.8413 6.6665 10.0003 6.6665C8.15938 6.6665 6.66699 8.15889 6.66699 9.99984C6.66699 11.8408 8.15938 13.3332 10.0003 13.3332Z" fill="white"/>
<circle r="1.16667" transform="matrix(-1 0 0 1 3 16.7266)" fill="white" stroke="white" stroke-width="0.666667"/>
</svg>
