<svg width="30" height="30" viewBox="0 0 30 30" fill="none" xmlns="http://www.w3.org/2000/svg">
<path fill-rule="evenodd" clip-rule="evenodd" d="M7.15288 7.88753C7.2966 7.45735 7.06395 6.9924 6.63324 6.84904L4.16664 6.02805C3.73593 5.8847 3.27025 6.11721 3.12652 6.5474C2.9828 6.97758 3.21545 7.44253 3.64616 7.58589L6.11276 8.40687C6.54348 8.55023 7.00915 8.31772 7.15288 7.88753Z" fill="white"/>
<path fill-rule="evenodd" clip-rule="evenodd" d="M6.21681 12.6597C6.04821 12.2384 5.56992 12.0333 5.14851 12.2014L2.77954 13.147C2.35814 13.3152 2.15319 13.7931 2.32179 14.2143C2.49039 14.6356 2.96868 14.8408 3.39009 14.6726L5.75906 13.7271C6.18046 13.5589 6.3854 13.081 6.21681 12.6597Z" fill="white"/>
<path fill-rule="evenodd" clip-rule="evenodd" d="M23.8471 7.88851C23.7034 7.45832 23.936 6.99338 24.3668 6.85002L26.8334 6.02904C27.2641 5.88568 27.7298 6.1182 27.8735 6.54838C28.0172 6.97856 27.7846 7.44351 27.3539 7.58687L24.8872 8.40785C24.4565 8.55121 23.9909 8.31869 23.8471 7.88851Z" fill="white"/>
<path fill-rule="evenodd" clip-rule="evenodd" d="M24.7832 12.6607C24.9518 12.2394 25.4301 12.0342 25.8515 12.2024L28.2205 13.148C28.6419 13.3162 28.8468 13.794 28.6782 14.2153C28.5096 14.6366 28.0313 14.8418 27.6099 14.6736L25.2409 13.728C24.8195 13.5599 24.6146 13.082 24.7832 12.6607Z" fill="white"/>
<path fill-rule="evenodd" clip-rule="evenodd" d="M12.9435 19.2877C10.6748 19.2877 8.83557 21.1269 8.83557 23.3957V24.213C8.83557 24.6667 8.46773 25.0346 8.01397 25.0346C7.56022 25.0346 7.19238 24.6667 7.19238 24.213V23.3957C7.19238 20.2194 9.76726 17.6445 12.9435 17.6445H17.0619C20.2381 17.6445 22.813 20.2194 22.813 23.3957V24.213C22.813 24.6667 22.4451 25.0346 21.9914 25.0346C21.5376 25.0346 21.1698 24.6667 21.1698 24.213V23.3957C21.1698 21.1269 19.3306 19.2877 17.0619 19.2877H12.9435Z" fill="white"/>
<path fill-rule="evenodd" clip-rule="evenodd" d="M15.0025 15.1809C17.0489 15.1809 18.7036 13.5251 18.7036 11.4877C18.7036 9.45035 17.0489 7.79455 15.0025 7.79455C12.9561 7.79455 11.3014 9.45035 11.3014 11.4877C11.3014 13.5251 12.9561 15.1809 15.0025 15.1809ZM15.0025 16.8241C17.9541 16.8241 20.3468 14.4349 20.3468 11.4877C20.3468 8.54055 17.9541 6.15137 15.0025 6.15137C12.0509 6.15137 9.6582 8.54055 9.6582 11.4877C9.6582 14.4349 12.0509 16.8241 15.0025 16.8241Z" fill="white"/>
<path fill-rule="evenodd" clip-rule="evenodd" d="M16.2372 16.8253H13.7682V17.6439H16.2372V16.8253ZM12.125 15.1821V19.287H17.8804V15.1821H12.125Z" fill="white"/>
<path fill-rule="evenodd" clip-rule="evenodd" d="M6.95537 16.9763L9.72977 10.7432L11.231 11.4114L8.45656 17.6445H13.7692V19.2877H8.45656C7.26707 19.2877 6.47167 18.063 6.95537 16.9763Z" fill="white"/>
<path fill-rule="evenodd" clip-rule="evenodd" d="M23.0495 16.9763L20.2751 10.7432L18.7739 11.4114L21.5483 17.6445H16.2357V19.2877H21.5483C22.7378 19.2877 23.5332 18.063 23.0495 16.9763Z" fill="white"/>
<path fill-rule="evenodd" clip-rule="evenodd" d="M20.9832 7.2735C21.2703 7.62489 21.2182 8.14247 20.8668 8.42955C18.8811 10.0517 16.902 10.4261 15.221 10.1761C13.5755 9.93137 12.2686 9.09782 11.5444 8.37468L12.7055 7.21191C13.2146 7.72024 14.2099 8.36446 15.4627 8.55077C16.6799 8.73179 18.1951 8.49038 19.8272 7.15704C20.1786 6.86996 20.6961 6.9221 20.9832 7.2735Z" fill="white"/>
</svg>
