<svg width="30" height="30" viewBox="0 0 30 30" fill="none" xmlns="http://www.w3.org/2000/svg">
<path fill-rule="evenodd" clip-rule="evenodd" d="M14.8779 8.99951C14.4219 8.99951 14.0522 8.64111 14.0522 8.19899V5.80041C14.0522 5.3583 14.4219 4.99989 14.8779 4.99989C15.334 4.99989 15.7036 5.3583 15.7036 5.80041V8.19899C15.7036 8.64111 15.334 8.99951 14.8779 8.99951Z" fill="white"/>
<path fill-rule="evenodd" clip-rule="evenodd" d="M9.78859 9.82344C9.36223 9.98028 8.88512 9.77245 8.72292 9.35925L7.84271 7.11681C7.68051 6.70361 7.89466 6.2415 8.32102 6.08466C8.74738 5.92783 9.22449 6.13565 9.38669 6.54886L10.2669 8.79129C10.4291 9.2045 10.215 9.66661 9.78859 9.82344Z" fill="white"/>
<path fill-rule="evenodd" clip-rule="evenodd" d="M5.17845 12.6549C4.81723 12.9248 4.29835 12.86 4.01948 12.5102L2.50514 10.6106C2.22627 10.2608 2.29303 9.75846 2.65424 9.4886C3.01545 9.21874 3.53434 9.28355 3.81321 9.63336L5.32754 11.5329C5.60641 11.8827 5.53966 12.3851 5.17845 12.6549Z" fill="white"/>
<path fill-rule="evenodd" clip-rule="evenodd" d="M19.9648 9.82344C20.3912 9.98028 20.8683 9.77245 21.0305 9.35925L21.9107 7.11681C22.0729 6.7036 21.8587 6.24149 21.4324 6.08465C21.006 5.92782 20.5289 6.13564 20.3667 6.54885L19.4865 8.79129C19.3243 9.20449 19.5385 9.6666 19.9648 9.82344Z" fill="white"/>
<path fill-rule="evenodd" clip-rule="evenodd" d="M24.5755 12.6549C24.9367 12.9248 25.4556 12.86 25.7344 12.5102L27.2488 10.6106C27.5276 10.2608 27.4609 9.75846 27.0997 9.4886C26.7385 9.21874 26.2196 9.28355 25.9407 9.63336L24.4264 11.5329C24.1475 11.8827 24.2142 12.3851 24.5755 12.6549Z" fill="white"/>
<path fill-rule="evenodd" clip-rule="evenodd" d="M4.94294 17.9292C4.94278 17.9293 4.94358 17.9266 4.94579 17.9208C4.9442 17.9262 4.9431 17.9291 4.94294 17.9292ZM5.00572 17.8005C5.02068 17.774 5.03856 17.7438 5.05977 17.7098C5.17601 17.5232 5.36098 17.2714 5.6153 16.9732C6.12217 16.3788 6.86772 15.6428 7.79518 14.9272C9.66441 13.485 12.1716 12.2016 14.8767 12.2016C17.5818 12.2016 20.089 13.485 21.9583 14.9272C22.8857 15.6428 23.6313 16.3788 24.1381 16.9732C24.3925 17.2714 24.5774 17.5232 24.6937 17.7098C24.7149 17.7438 24.7328 17.774 24.7477 17.8005C24.7328 17.827 24.7149 17.8572 24.6937 17.8912C24.5774 18.0778 24.3925 18.3296 24.1381 18.6278C23.6313 19.2222 22.8857 19.9582 21.9583 20.6738C20.089 22.116 17.5818 23.3994 14.8767 23.3994C12.1716 23.3994 9.66441 22.116 7.79518 20.6738C6.86772 19.9582 6.12217 19.2222 5.6153 18.6278C5.36098 18.3296 5.17601 18.0778 5.05977 17.8912C5.03856 17.8572 5.02068 17.827 5.00572 17.8005ZM24.8105 17.9292C24.8104 17.9291 24.8092 17.9262 24.8077 17.9208C24.8099 17.9265 24.8107 17.9293 24.8105 17.9292ZM24.8077 17.6802C24.8092 17.6747 24.8104 17.6719 24.8105 17.6718C24.8107 17.6717 24.8099 17.6744 24.8077 17.6802ZM4.94579 17.6802C4.94358 17.6744 4.94278 17.6717 4.94294 17.6718C4.9431 17.6719 4.9442 17.6747 4.94579 17.6802ZM6.76686 13.6745C8.78544 12.117 11.6492 10.6006 14.8767 10.6006C18.1042 10.6006 20.968 12.117 22.9866 13.6745C24.003 14.4587 24.8306 15.2726 25.4109 15.953C25.7001 16.2923 25.9372 16.6092 26.1072 16.8819C26.1917 17.0176 26.2676 17.155 26.3249 17.2877C26.3739 17.4012 26.4444 17.5888 26.4444 17.8005C26.4444 18.0122 26.3739 18.1998 26.3249 18.3132C26.2676 18.4459 26.1917 18.5833 26.1072 18.719C25.9372 18.9918 25.7001 19.3087 25.4109 19.6479C24.8306 20.3284 24.003 21.1423 22.9866 21.9265C20.968 23.484 18.1042 25.0004 14.8767 25.0004C11.6492 25.0004 8.78544 23.484 6.76686 21.9265C5.75041 21.1423 4.92283 20.3284 4.34256 19.6479C4.0533 19.3087 3.8162 18.9918 3.64625 18.719C3.56171 18.5833 3.48584 18.4459 3.42856 18.3132C3.37958 18.1998 3.30908 18.0122 3.30908 17.8005C3.30908 17.5888 3.37958 17.4012 3.42856 17.2877C3.48584 17.155 3.56171 17.0176 3.64625 16.8819C3.8162 16.6092 4.0533 16.2923 4.34256 15.953C4.92283 15.2726 5.75041 14.4587 6.76686 13.6745Z" fill="white"/>
<path fill-rule="evenodd" clip-rule="evenodd" d="M14.8782 12.2011C12.595 12.2011 10.7461 13.9927 10.7461 16.2002C10.7461 18.4076 12.595 20.1992 14.8782 20.1992C17.1615 20.1992 19.0104 18.4076 19.0104 16.2002C19.0104 13.9927 17.1615 12.2011 14.8782 12.2011ZM9.09473 16.2002C9.09473 13.1062 11.6853 10.6001 14.8782 10.6001C18.0712 10.6001 20.6618 13.1062 20.6618 16.2002C20.6618 19.2941 18.0712 21.8002 14.8782 21.8002C11.6853 21.8002 9.09473 19.2941 9.09473 16.2002Z" fill="white"/>
<path d="M17.3558 16.2006C17.3558 17.5259 16.2459 18.6003 14.8769 18.6003C13.5078 18.6003 12.3979 17.5259 12.3979 16.2006C12.3979 14.8752 13.5078 13.8008 14.8769 13.8008C16.2459 13.8008 17.3558 14.8752 17.3558 16.2006Z" fill="white"/>
<path fill-rule="evenodd" clip-rule="evenodd" d="M14.8764 14.601C13.9622 14.601 13.2232 15.3182 13.2232 16.2003C13.2232 17.0824 13.9622 17.7995 14.8764 17.7995C15.7906 17.7995 16.5296 17.0824 16.5296 16.2003C16.5296 15.3182 15.7906 14.601 14.8764 14.601ZM11.5718 16.2003C11.5718 14.4317 13.0525 13 14.8764 13C16.7003 13 18.181 14.4317 18.181 16.2003C18.181 17.9689 16.7003 19.4006 14.8764 19.4006C13.0525 19.4006 11.5718 17.9689 11.5718 16.2003Z" fill="white"/>
</svg>
