<svg width="30" height="30" viewBox="0 0 30 30" fill="none" xmlns="http://www.w3.org/2000/svg">
<path fill-rule="evenodd" clip-rule="evenodd" d="M24.4851 7.93453H4.65138L4.65138 21.5309H24.4851V7.93453ZM4.65138 6.3335C3.73935 6.3335 3 7.0503 3 7.93453V21.5309C3 22.4151 3.73935 23.1319 4.65138 23.1319H24.4851C25.3972 23.1319 26.1365 22.4151 26.1365 21.5309V7.93453C26.1365 7.0503 25.3972 6.3335 24.4851 6.3335H4.65138Z" fill="white"/>
<path fill-rule="evenodd" clip-rule="evenodd" d="M9.35759 19.9331L9.08257 21.5305H20.0563L19.7813 19.9331H9.35759ZM8.6583 18.332C8.25474 18.332 7.91031 18.6148 7.84388 19.0008L7.29321 22.1993C7.2092 22.6873 7.59733 23.1316 8.10763 23.1316H21.0312C21.5415 23.1316 21.9297 22.6873 21.8457 22.1993L21.295 19.0008C21.2286 18.6148 20.8841 18.332 20.4806 18.332H8.6583Z" fill="white"/>
<path fill-rule="evenodd" clip-rule="evenodd" d="M9.61088 15.1323C10.5266 15.1323 11.2647 14.4144 11.2647 13.5337C11.2647 12.653 10.5266 11.935 9.61088 11.935C8.69518 11.935 7.95705 12.653 7.95705 13.5337C7.95705 14.4144 8.69518 15.1323 9.61088 15.1323ZM9.61088 16.7334C11.4363 16.7334 12.9161 15.3008 12.9161 13.5337C12.9161 11.7665 11.4363 10.334 9.61088 10.334C7.78546 10.334 6.30566 11.7665 6.30566 13.5337C6.30566 15.3008 7.78546 16.7334 9.61088 16.7334Z" fill="white"/>
<path fill-rule="evenodd" clip-rule="evenodd" d="M19.5314 11.935H9.60598C8.6953 11.935 7.95705 12.6508 7.95705 13.5337C7.95705 14.4166 8.6953 15.1323 9.60598 15.1323H19.5314C20.4421 15.1323 21.1804 14.4166 21.1804 13.5337C21.1804 12.6508 20.4421 11.935 19.5314 11.935ZM9.60598 10.334C7.78326 10.334 6.30566 11.7665 6.30566 13.5337C6.30566 15.3008 7.78326 16.7334 9.60598 16.7334H19.5314C21.3541 16.7334 22.8317 15.3008 22.8317 13.5337C22.8317 11.7665 21.3541 10.334 19.5314 10.334H9.60598Z" fill="white"/>
</svg>
