<svg width="170" height="170" viewBox="0 0 170 170" fill="none" xmlns="http://www.w3.org/2000/svg">
<g filter="url(#filter0_d)">
<rect x="20" y="16" width="130" height="130" rx="10" fill="white"/>
</g>
<path opacity="0.2" fill-rule="evenodd" clip-rule="evenodd" d="M150 80.9878V136C150 141.523 145.523 146 140 146H78.9878L46 113.012L114.012 45L150 80.9878Z" fill="#02B0D6"/>
<rect x="34" y="134.948" width="20" height="20" transform="rotate(-14.3227 34 134.948)" fill="#9ADDEC"/>
<rect x="62" y="30.6963" width="10.8992" height="10.8992" transform="rotate(-14.3227 62 30.6963)" fill="#02B0D6"/>
<path fill-rule="evenodd" clip-rule="evenodd" d="M60.6081 63.7461C61.0434 62.4431 60.3387 61.0349 59.0342 60.6007L51.5633 58.1141C50.2587 57.6799 48.8483 58.3841 48.413 59.6871C47.9776 60.99 48.6823 62.3983 49.9869 62.8325L57.4578 65.3191C58.7623 65.7533 60.1728 65.049 60.6081 63.7461Z" fill="black"/>
<path fill-rule="evenodd" clip-rule="evenodd" d="M57.7725 78.2004C57.2619 76.9244 55.8132 76.303 54.5368 76.8124L47.3616 79.6763C46.0853 80.1857 45.4645 81.6331 45.9752 82.9091C46.4858 84.1851 47.9345 84.8065 49.2109 84.2971L56.3861 81.4333C57.6624 80.9238 58.2832 79.4764 57.7725 78.2004Z" fill="black"/>
<path fill-rule="evenodd" clip-rule="evenodd" d="M111.17 63.749C110.735 62.4461 111.44 61.0378 112.744 60.6036L120.215 58.117C121.52 57.6828 122.93 58.3871 123.365 59.69C123.801 60.993 123.096 62.4012 121.792 62.8354L114.321 65.322C113.016 65.7562 111.606 65.052 111.17 63.749Z" fill="black"/>
<path fill-rule="evenodd" clip-rule="evenodd" d="M114.006 78.2033C114.516 76.9273 115.965 76.3059 117.241 76.8153L124.417 79.6792C125.693 80.1886 126.314 81.636 125.803 82.912C125.292 84.188 123.844 84.8095 122.567 84.3L115.392 81.4362C114.116 80.9267 113.495 79.4794 114.006 78.2033Z" fill="black"/>
<path fill-rule="evenodd" clip-rule="evenodd" d="M78.1457 98.2755C71.2741 98.2755 65.7035 103.846 65.7035 110.718V113.193C65.7035 114.568 64.5894 115.682 63.215 115.682C61.8407 115.682 60.7266 114.568 60.7266 113.193V110.718C60.7266 101.097 68.5254 93.2986 78.1457 93.2986H90.6194C100.24 93.2986 108.039 101.097 108.039 110.718V113.193C108.039 114.568 106.925 115.682 105.55 115.682C104.176 115.682 103.062 114.568 103.062 113.193V110.718C103.062 103.846 97.4911 98.2755 90.6194 98.2755H78.1457Z" fill="black"/>
<path fill-rule="evenodd" clip-rule="evenodd" d="M84.3828 85.8368C90.5809 85.8368 95.5928 80.8217 95.5928 74.6507C95.5928 68.4798 90.5809 63.4647 84.3828 63.4647C78.1847 63.4647 73.1727 68.4798 73.1727 74.6507C73.1727 80.8217 78.1847 85.8368 84.3828 85.8368ZM84.3828 90.8137C93.3226 90.8137 100.57 83.5773 100.57 74.6507C100.57 65.7242 93.3226 58.4878 84.3828 58.4878C75.443 58.4878 68.1958 65.7242 68.1958 74.6507C68.1958 83.5773 75.443 90.8137 84.3828 90.8137Z" fill="black"/>
<path fill-rule="evenodd" clip-rule="evenodd" d="M88.1217 90.8172H80.6434V93.2965H88.1217V90.8172ZM75.6665 85.8403V98.2734H93.0986V85.8403H75.6665Z" fill="black"/>
<path fill-rule="evenodd" clip-rule="evenodd" d="M60.0094 91.2746L68.4126 72.3955L72.9594 74.4193L64.5563 93.2984H80.6472V98.2753H64.5563C60.9535 98.2753 58.5444 94.5661 60.0094 91.2746Z" fill="black"/>
<path fill-rule="evenodd" clip-rule="evenodd" d="M108.756 91.2746L100.353 72.3955L95.8057 74.4193L104.209 93.2984H88.1179V98.2753H104.209C107.812 98.2753 110.221 94.5661 108.756 91.2746Z" fill="black"/>
<path fill-rule="evenodd" clip-rule="evenodd" d="M102.497 61.8866C103.366 62.9509 103.208 64.5185 102.144 65.388C96.1298 70.3014 90.1354 71.4352 85.0438 70.678C80.06 69.9368 76.1017 67.4121 73.9082 65.2219L77.4248 61.7C78.9667 63.2397 81.9813 65.1909 85.7759 65.7552C89.4626 66.3035 94.0519 65.5723 98.9951 61.5338C100.059 60.6643 101.627 60.8223 102.497 61.8866Z" fill="black"/>
<defs>
<filter id="filter0_d" x="0" y="0" width="170" height="170" filterUnits="userSpaceOnUse" color-interpolation-filters="sRGB">
<feFlood flood-opacity="0" result="BackgroundImageFix"/>
<feColorMatrix in="SourceAlpha" type="matrix" values="0 0 0 0 0 0 0 0 0 0 0 0 0 0 0 0 0 0 127 0"/>
<feOffset dy="4"/>
<feGaussianBlur stdDeviation="10"/>
<feColorMatrix type="matrix" values="0 0 0 0 0.682672 0 0 0 0 0.893576 0 0 0 0 0.941782 0 0 0 1 0"/>
<feBlend mode="normal" in2="BackgroundImageFix" result="effect1_dropShadow"/>
<feBlend mode="normal" in="SourceGraphic" in2="effect1_dropShadow" result="shape"/>
</filter>
</defs>
</svg>
